<svg xmlns="http://www.w3.org/2000/svg" version="1.1" xmlns:xlink="http://www.w3.org/1999/xlink" xmlns:svgjs="http://svgjs.dev/svgjs" viewBox="0 0 800 800" opacity="0.49" width="800" height="800"><g stroke-width="1" stroke="hsla(261, 65%, 3%, 0.47)" fill="#00ffff"><line x1="0" y1="0" x2="160" y2="160"></line><line x1="160" y1="0" x2="0" y2="160"></line><rect width="160" height="160" x="0" y="0" opacity="0.15"></rect><line x1="160" y1="0" x2="320" y2="160"></line><line x1="320" y1="0" x2="160" y2="160"></line><rect width="160" height="160" x="160" y="0" opacity="0.15"></rect><line x1="320" y1="0" x2="480" y2="160"></line><line x1="480" y1="0" x2="320" y2="160"></line><rect width="160" height="160" x="320" y="0" opacity="0.15"></rect><line x1="480" y1="0" x2="640" y2="160"></line><line x1="640" y1="0" x2="480" y2="160"></line><rect width="160" height="160" x="480" y="0" opacity="0.15"></rect><line x1="640" y1="0" x2="800" y2="160"></line><line x1="800" y1="0" x2="640" y2="160"></line><rect width="160" height="160" x="640" y="0" opacity="0.15"></rect><line x1="800" y1="0" x2="960" y2="160"></line><line x1="960" y1="0" x2="800" y2="160"></line><rect width="160" height="160" x="800" y="0" opacity="0.15"></rect><line x1="0" y1="160" x2="160" y2="320"></line><line x1="160" y1="160" x2="0" y2="320"></line><rect width="160" height="160" x="0" y="160" opacity="0.15"></rect><line x1="160" y1="160" x2="320" y2="320"></line><line x1="320" y1="160" x2="160" y2="320"></line><rect width="160" height="160" x="160" y="160" opacity="0.15"></rect><line x1="320" y1="160" x2="480" y2="320"></line><line x1="480" y1="160" x2="320" y2="320"></line><rect width="160" height="160" x="320" y="160" opacity="0.15"></rect><line x1="480" y1="160" x2="640" y2="320"></line><line x1="640" y1="160" x2="480" y2="320"></line><rect width="160" height="160" x="480" y="160" opacity="0.15"></rect><line x1="640" y1="160" x2="800" y2="320"></line><line x1="800" y1="160" x2="640" y2="320"></line><rect width="160" height="160" x="640" y="160" opacity="0.15"></rect><line x1="800" y1="160" x2="960" y2="320"></line><line x1="960" y1="160" x2="800" y2="320"></line><rect width="160" height="160" x="800" y="160" opacity="0.15"></rect><line x1="0" y1="320" x2="160" y2="480"></line><line x1="160" y1="320" x2="0" y2="480"></line><rect width="160" height="160" x="0" y="320" opacity="0.15"></rect><line x1="160" y1="320" x2="320" y2="480"></line><line x1="320" y1="320" x2="160" y2="480"></line><rect width="160" height="160" x="160" y="320" opacity="0.15"></rect><line x1="320" y1="320" x2="480" y2="480"></line><line x1="480" y1="320" x2="320" y2="480"></line><rect width="160" height="160" x="320" y="320" opacity="0.15"></rect><line x1="480" y1="320" x2="640" y2="480"></line><line x1="640" y1="320" x2="480" y2="480"></line><rect width="160" height="160" x="480" y="320" opacity="0.15"></rect><line x1="640" y1="320" x2="800" y2="480"></line><line x1="800" y1="320" x2="640" y2="480"></line><rect width="160" height="160" x="640" y="320" opacity="0.15"></rect><line x1="800" y1="320" x2="960" y2="480"></line><line x1="960" y1="320" x2="800" y2="480"></line><rect width="160" height="160" x="800" y="320" opacity="0.15"></rect><line x1="0" y1="480" x2="160" y2="640"></line><line x1="160" y1="480" x2="0" y2="640"></line><rect width="160" height="160" x="0" y="480" opacity="0.15"></rect><line x1="160" y1="480" x2="320" y2="640"></line><line x1="320" y1="480" x2="160" y2="640"></line><rect width="160" height="160" x="160" y="480" opacity="0.15"></rect><line x1="320" y1="480" x2="480" y2="640"></line><line x1="480" y1="480" x2="320" y2="640"></line><rect width="160" height="160" x="320" y="480" opacity="0.15"></rect><line x1="480" y1="480" x2="640" y2="640"></line><line x1="640" y1="480" x2="480" y2="640"></line><rect width="160" height="160" x="480" y="480" opacity="0.15"></rect><line x1="640" y1="480" x2="800" y2="640"></line><line x1="800" y1="480" x2="640" y2="640"></line><rect width="160" height="160" x="640" y="480" opacity="0.15"></rect><line x1="800" y1="480" x2="960" y2="640"></line><line x1="960" y1="480" x2="800" y2="640"></line><rect width="160" height="160" x="800" y="480" opacity="0.15"></rect><line x1="0" y1="640" x2="160" y2="800"></line><line x1="160" y1="640" x2="0" y2="800"></line><rect width="160" height="160" x="0" y="640" opacity="0.15"></rect><line x1="160" y1="640" x2="320" y2="800"></line><line x1="320" y1="640" x2="160" y2="800"></line><rect width="160" height="160" x="160" y="640" opacity="0.15"></rect><line x1="320" y1="640" x2="480" y2="800"></line><line x1="480" y1="640" x2="320" y2="800"></line><rect width="160" height="160" x="320" y="640" opacity="0.15"></rect><line x1="480" y1="640" x2="640" y2="800"></line><line x1="640" y1="640" x2="480" y2="800"></line><rect width="160" height="160" x="480" y="640" opacity="0.15"></rect><line x1="640" y1="640" x2="800" y2="800"></line><line x1="800" y1="640" x2="640" y2="800"></line><rect width="160" height="160" x="640" y="640" opacity="0.15"></rect><line x1="800" y1="640" x2="960" y2="800"></line><line x1="960" y1="640" x2="800" y2="800"></line><rect width="160" height="160" x="800" y="640" opacity="0.15"></rect><line x1="0" y1="800" x2="160" y2="960"></line><line x1="160" y1="800" x2="0" y2="960"></line><rect width="160" height="160" x="0" y="800" opacity="0.15"></rect><line x1="160" y1="800" x2="320" y2="960"></line><line x1="320" y1="800" x2="160" y2="960"></line><rect width="160" height="160" x="160" y="800" opacity="0.15"></rect><line x1="320" y1="800" x2="480" y2="960"></line><line x1="480" y1="800" x2="320" y2="960"></line><rect width="160" height="160" x="320" y="800" opacity="0.15"></rect><line x1="480" y1="800" x2="640" y2="960"></line><line x1="640" y1="800" x2="480" y2="960"></line><rect width="160" height="160" x="480" y="800" opacity="0.15"></rect><line x1="640" y1="800" x2="800" y2="960"></line><line x1="800" y1="800" x2="640" y2="960"></line><rect width="160" height="160" x="640" y="800" opacity="0.15"></rect><line x1="800" y1="800" x2="960" y2="960"></line><line x1="960" y1="800" x2="800" y2="960"></line><rect width="160" height="160" x="800" y="800" opacity="0.15"></rect></g></svg>